<?xml version="1.0" encoding="utf-8"?>
<!-- Generator: Adobe Illustrator 27.1.1, SVG Export Plug-In . SVG Version: 6.00 Build 0)  -->
<svg version="1.1" xmlns="http://www.w3.org/2000/svg" xmlns:xlink="http://www.w3.org/1999/xlink" x="0px" y="0px"
	 viewBox="0 0 195.2 195.2" style="enable-background:new 0 0 195.2 195.2;" xml:space="preserve">
<style type="text/css">
	.st0{display:none;}
	.st1{display:inline;fill:#2262C6;}
	.st2{display:inline;fill:#FFFFFF;}
	.st3{fill:#0A4F14;}
	.st4{fill:#FFFFFF;}
	.st5{display:inline;fill:#D1812A;}
</style>
<g id="Calque_2" class="st0">
	
		<image style="display:inline;overflow:visible;" width="1920" height="1439" xlink:href="FA66A77D.jpg"  transform="matrix(8.1963 0 0 7.721 -12215.7734 -3899.5879)">
	</image>
</g>
<g id="Calque_1" class="st0">
	<path class="st1" d="M165.5,195.2H29.7C13.3,195.2,0,181.9,0,165.5V29.7C0,13.3,13.3,0,29.7,0h135.8c16.4,0,29.7,13.3,29.7,29.7
		v135.8C195.2,181.9,181.9,195.2,165.5,195.2z"/>
	<rect x="38.6" y="51" class="st2" width="122.6" height="18.3"/>
	<rect x="38.6" y="77.7" class="st2" width="122.6" height="18.3"/>
	<rect x="38.6" y="104.3" class="st2" width="122.6" height="18.3"/>
	<rect x="38.6" y="131.8" class="st2" width="83.8" height="18.3"/>
</g>
<g id="Calque_3">
	<path class="st3" d="M165.5,195.2H29.7C13.3,195.2,0,181.9,0,165.5V29.7C0,13.3,13.3,0,29.7,0h135.8c16.4,0,29.7,13.3,29.7,29.7
		v135.8C195.2,181.9,181.9,195.2,165.5,195.2z"/>
	<rect x="38.6" y="36.3" class="st4" width="122.6" height="12.7"/>
	
		<rect x="93.6" y="91.3" transform="matrix(6.123234e-17 -1 1 6.123234e-17 57.2836 252.499)" class="st4" width="122.6" height="12.7"/>
	<rect x="38.6" y="146.3" class="st4" width="122.6" height="12.7"/>
	
		<rect x="-16.4" y="91.3" transform="matrix(-1.836970e-16 1 -1 -1.836970e-16 142.5207 52.6947)" class="st4" width="122.6" height="12.7"/>
	
		<rect x="38.6" y="91.3" transform="matrix(-1.836970e-16 1 -1 -1.836970e-16 197.5099 -2.2945)" class="st4" width="122.6" height="12.7"/>
	
		<rect x="38.6" y="74.8" transform="matrix(-1 -1.224647e-16 1.224647e-16 -1 199.8044 162.2371)" class="st4" width="122.6" height="12.7"/>
	
		<rect x="38.6" y="111.3" transform="matrix(-1 -1.224647e-16 1.224647e-16 -1 199.8044 235.2371)" class="st4" width="122.6" height="12.7"/>
</g>
<g id="Calque_4" class="st0">
	<path class="st5" d="M165.5,195.2H29.7C13.3,195.2,0,181.9,0,165.5V29.7C0,13.3,13.3,0,29.7,0h135.8c16.4,0,29.7,13.3,29.7,29.7
		v135.8C195.2,181.9,181.9,195.2,165.5,195.2z"/>
	<path class="st2" d="M152.8,49.5c2.4,0,4.4,2,4.4,4.4v88l-1.4-1.8l-37.4-48.4c-1.2-1.6-3.2-2.6-5.2-2.6s-4,0.9-5.2,2.6L85,121.3
		l-8.4-11.8c-1.2-1.7-3.2-2.8-5.4-2.8s-4.1,1-5.4,2.8l-22,30.8l-1.2,1.7V142V53.9c0-2.4,2-4.4,4.4-4.4H152.8z M47,36.3
		c-9.7,0-17.6,7.9-17.6,17.6V142c0,9.7,7.9,17.6,17.6,17.6h105.7c9.7,0,17.6-7.9,17.6-17.6V53.9c0-9.7-7.9-17.6-17.6-17.6H47z
		 M69.1,89.1c7.3,0,13.2-5.9,13.2-13.2s-5.9-13.2-13.2-13.2c-7.3,0-13.2,5.9-13.2,13.2S61.8,89.1,69.1,89.1z"/>
</g>
</svg>
